<mxfile host="Electron" modified="2023-09-19T08:40:13.127Z" agent="Mozilla/5.0 (X11; Linux x86_64) AppleWebKit/537.36 (KHTML, like Gecko) draw.io/21.7.5 Chrome/114.0.5735.134 Electron/25.6.0 Safari/537.36" etag="iG2y5bU4P7gC5yXhVKNz" version="21.7.5" type="device">
  <diagram name="Page-1" id="i4JU6mmWqJ4ELUhUpnvZ">
    <mxGraphModel dx="2100" dy="1358" grid="1" gridSize="10" guides="1" tooltips="1" connect="1" arrows="1" fold="1" page="1" pageScale="1" pageWidth="1600" pageHeight="900" math="0" shadow="0">
      <root>
        <mxCell id="0" />
        <mxCell id="1" parent="0" />
        <mxCell id="meMLHYhAWkN2msn4nDNO-1" value="&lt;font style=&quot;font-size: 24px;&quot;&gt;navigatie balk&lt;/font&gt;" style="rounded=1;whiteSpace=wrap;html=1;" parent="1" vertex="1">
          <mxGeometry x="280" y="20" width="1040" height="100" as="geometry" />
        </mxCell>
        <mxCell id="meMLHYhAWkN2msn4nDNO-2" value="&lt;font style=&quot;font-size: 28px;&quot;&gt;footer&lt;/font&gt;" style="rounded=1;whiteSpace=wrap;html=1;" parent="1" vertex="1">
          <mxGeometry x="280" y="770" width="1040" height="80" as="geometry" />
        </mxCell>
        <mxCell id="meMLHYhAWkN2msn4nDNO-3" value="&lt;font style=&quot;font-size: 50px;&quot;&gt;foto&lt;/font&gt;" style="ellipse;whiteSpace=wrap;html=1;aspect=fixed;rounded=1;" parent="1" vertex="1">
          <mxGeometry x="630" y="330" width="390" height="390" as="geometry" />
        </mxCell>
        <mxCell id="meMLHYhAWkN2msn4nDNO-4" value="&lt;font style=&quot;font-size: 50px;&quot;&gt;naam&lt;/font&gt;" style="text;html=1;align=center;verticalAlign=middle;resizable=0;points=[];autosize=1;strokeColor=none;fillColor=none;rounded=1;" parent="1" vertex="1">
          <mxGeometry x="745" y="190" width="160" height="70" as="geometry" />
        </mxCell>
      </root>
    </mxGraphModel>
  </diagram>
</mxfile>
